<svg width="264" height="79" viewBox="0 0 264 79" fill="none" xmlns="http://www.w3.org/2000/svg">
<path d="M127.85 19.9089L132.633 7.77597H113.053V32.0115H132.633L127.85 19.9089Z" fill="#008D35"/>
<path d="M148.536 24.7197H146.623V20.6048H143.334V24.7197H141.451V14.8863H143.334V18.8802H146.623V14.8863H148.536V24.7197Z" fill="#008D35"/>
<path d="M157.922 24.7197H151.525V14.8863H157.922V16.5807H153.409V18.8802H157.265V20.6048H153.409V22.9951H157.922V24.7197Z" fill="#008D35"/>
<path d="M166.801 26.8982V24.7197H161.421V26.8982H159.597V22.9951H160.524C161.301 21.7848 161.69 19.9089 161.69 17.3976V14.8863H167.549V22.9951H168.655V26.8982H166.801ZM165.606 22.9951V16.5807H163.453V18.0027C163.453 20.1509 163.154 21.8151 162.586 22.9951H165.606Z" fill="#008D35"/>
<path d="M176.578 19.6668C176.877 19.8181 177.146 19.9996 177.325 20.1812C177.714 20.6048 177.923 21.1796 177.923 21.8755C177.923 22.753 177.654 23.4186 177.116 23.933C176.578 24.4473 175.86 24.6894 174.934 24.6894H170.868V14.856H174.754C175.681 14.856 176.398 15.0981 176.936 15.5822C177.475 16.0663 177.744 16.7319 177.744 17.5488C177.744 18.4868 177.355 19.1827 176.548 19.6366L176.578 19.6668ZM172.781 18.8499H174.635C175.023 18.8499 175.322 18.7591 175.561 18.5473C175.771 18.3355 175.89 18.0632 175.89 17.7304C175.89 17.3976 175.771 17.095 175.561 16.9135C175.322 16.7017 175.023 16.6109 174.635 16.6109H172.781V18.8801V18.8499ZM172.781 22.995H174.754C175.143 22.995 175.442 22.874 175.681 22.6622C175.92 22.4504 176.01 22.1478 176.01 21.7848C176.01 21.4217 175.89 21.1191 175.681 20.9073C175.442 20.6955 175.143 20.6048 174.754 20.6048H172.781V23.0253V22.995Z" fill="#008D35"/>
<path d="M187.937 24.7197H186.054V18.3961L182.287 24.7197H180.583V14.8863H182.467V21.1797L186.263 14.8863H187.937V24.7197Z" fill="#008D35"/>
<path d="M192.031 24.7197H189.729L193.227 19.5156L190.058 14.9165H192.3L195.26 19.6063L192.001 24.7499L192.031 24.7197ZM197.173 24.7197H195.289V14.8863H197.173V24.7197ZM202.733 24.7197H200.431L197.173 19.5761L200.132 14.8863H202.374L199.205 19.4853L202.703 24.6894L202.733 24.7197Z" fill="#008D35"/>
<path d="M211.881 24.7197H209.997V18.3961L206.201 24.7197H204.527V14.8863H206.41V21.1797L210.207 14.8863H211.881V24.7197Z" fill="#008D35"/>
<path d="M223.688 24.7197H221.775V18.9709L219.922 22.6925H218.636L216.783 18.9709V24.7197H214.87V14.8863H216.753L219.294 20.1812L221.805 14.8863H223.688V24.7197Z" fill="#008D35"/>
<path d="M233.372 17.3067C233.492 17.8514 233.522 18.6683 233.522 19.7878C233.522 20.9073 233.462 21.7242 233.372 22.2688C233.283 22.8134 232.984 23.2975 232.535 23.7514C231.848 24.4473 230.981 24.7801 229.935 24.7801C228.888 24.7801 228.021 24.4473 227.334 23.7514C226.885 23.2975 226.616 22.8134 226.527 22.2688C226.407 21.7242 226.377 20.9073 226.377 19.7878C226.377 18.6683 226.437 17.8514 226.527 17.3067C226.616 16.7621 226.885 16.278 227.334 15.8242C228.021 15.1283 228.888 14.7954 229.935 14.7954C230.981 14.7954 231.848 15.1283 232.535 15.8242C232.984 16.278 233.253 16.7621 233.372 17.3067ZM231.638 19.7878C231.638 18.8801 231.638 18.2447 231.549 17.8816C231.459 17.5185 231.34 17.2462 231.16 17.0344C230.861 16.7016 230.443 16.5201 229.935 16.5201C229.426 16.5201 229.008 16.7016 228.709 17.0344C228.53 17.2462 228.41 17.5185 228.35 17.8816C228.29 18.2447 228.261 18.8801 228.261 19.7878C228.261 20.6955 228.261 21.3309 228.35 21.6939C228.41 22.057 228.53 22.3293 228.709 22.5411C229.038 22.9042 229.456 23.0857 229.935 23.0857C230.413 23.0857 230.831 22.9042 231.16 22.5411C231.34 22.3293 231.459 22.0268 231.549 21.6637C231.609 21.3309 231.638 20.6955 231.638 19.7878Z" fill="#008D35"/>
<path d="M243.029 21.6939C242.85 22.6924 242.461 23.4488 241.803 23.9934C241.146 24.5381 240.398 24.7801 239.472 24.7801C238.425 24.7801 237.559 24.4473 236.871 23.7514C236.423 23.2975 236.154 22.8134 236.064 22.2688C235.944 21.7242 235.914 20.9073 235.914 19.7878C235.914 18.6683 235.974 17.8514 236.064 17.3067C236.154 16.7621 236.423 16.278 236.871 15.8242C237.559 15.1283 238.425 14.7954 239.472 14.7954C240.398 14.7954 241.176 15.0677 241.803 15.5821C242.431 16.0965 242.85 16.8831 243.029 17.8816H241.086C240.877 16.9437 240.309 16.4898 239.472 16.4898C238.964 16.4898 238.545 16.6411 238.246 17.0042C238.067 17.216 237.947 17.4883 237.887 17.8514C237.828 18.2144 237.768 18.8498 237.768 19.7575C237.768 20.6652 237.798 21.3006 237.887 21.6637C237.947 22.0268 238.067 22.3293 238.246 22.5411C238.545 22.8739 238.934 23.0555 239.472 23.0555C240.339 23.0555 240.877 22.5714 241.116 21.6637H243.029V21.6939Z" fill="#008D35"/>
<path d="M251.518 16.5807H248.977V24.7197H247.064V16.5807H244.523V14.8863H251.518V16.5807Z" fill="#008D35"/>
<path d="M259.887 19.4248C260.455 19.9996 260.754 20.7258 260.754 21.6335C260.754 22.5412 260.455 23.2673 259.887 23.8422C259.319 24.4171 258.542 24.6894 257.615 24.6894H253.789V14.856H255.672V18.5473H257.585C258.512 18.5473 259.289 18.8499 259.887 19.3945V19.4248ZM258.482 22.6319C258.751 22.3899 258.871 22.0571 258.871 21.6637C258.871 21.2704 258.751 20.9376 258.482 20.6955C258.213 20.4535 257.884 20.3325 257.466 20.3325H255.702V23.0253H257.466C257.884 23.0253 258.243 22.9043 258.482 22.6622V22.6319Z" fill="#008D35"/>
<path d="M39.0999 78.5462H34.317L25.11 50.8916L15.9329 78.5462H11.15L0 42.9341H5.58997L13.661 71.5266L22.8681 42.9341H27.3221L36.6188 71.5266L44.6002 42.9341H50.1902L39.0999 78.5462Z" fill="#1A1A18"/>
<path d="M58.1992 62.1168C58.1992 69.923 61.8462 74.4312 68.5721 74.4312C72.6375 74.4312 74.999 73.1907 77.7791 70.3768L81.2765 73.4933C77.6894 77.1241 74.4012 79 68.3927 79C59.096 79 53.0278 73.342 53.0278 60.7552C53.0278 49.2577 58.528 42.5105 67.466 42.5105C76.404 42.5105 81.9043 49.167 81.9043 59.7265V62.1168H58.1693H58.1992ZM75.7165 52.2834C74.3713 49.0157 71.2026 46.928 67.4959 46.928C63.7892 46.928 60.6206 49.0157 59.2754 52.2834C58.4982 54.2501 58.3487 55.309 58.1992 58.2137H76.7926C76.6431 55.309 76.4937 54.2198 75.7165 52.2834Z" fill="#1A1A18"/>
<path d="M119.721 78.9698C110.842 78.9698 104.146 72.8882 104.146 60.725C104.146 48.5619 110.872 42.4803 119.721 42.4803C124.593 42.4803 127.642 43.7813 131.289 47.7752L127.792 51.1034C125.161 48.1383 123.069 47.1096 119.721 47.1096C116.373 47.1096 113.443 48.4711 111.56 51.1639C109.916 53.4937 109.258 56.2168 109.258 60.725C109.258 65.2333 109.886 67.9564 111.56 70.2861C113.413 72.9487 116.283 74.3405 119.721 74.3405C123.158 74.3405 125.161 73.2513 127.792 70.2861L131.289 73.6749C127.642 77.6687 124.563 78.9698 119.721 78.9698Z" fill="#1A1A18"/>
<path d="M162.616 74.9154C160.195 77.3662 156.817 78.9698 152.543 78.9698C148.268 78.9698 144.89 77.3662 142.469 74.9154C138.882 71.2241 138.164 66.2317 138.164 60.725C138.164 55.2183 138.882 50.226 142.469 46.5347C144.89 44.0839 148.268 42.4803 152.543 42.4803C156.817 42.4803 160.195 44.0839 162.616 46.5347C166.204 50.226 166.891 55.2183 166.891 60.725C166.891 66.2317 166.174 71.2241 162.616 74.9154ZM158.97 49.7419C157.325 48.0778 155.024 47.1398 152.543 47.1398C150.061 47.1398 147.819 48.0778 146.175 49.7419C143.605 52.344 143.306 56.7614 143.306 60.7553C143.306 64.7492 143.605 69.1364 146.175 71.7687C147.819 73.4328 150.032 74.3708 152.543 74.3708C155.054 74.3708 157.325 73.4328 158.97 71.7687C161.54 69.1666 161.75 64.7492 161.75 60.7553C161.75 56.7614 161.54 52.3742 158.97 49.7419Z" fill="#1A1A18"/>
<path d="M221.028 78.5461V56.6101C221.028 50.3167 217.68 47.1398 212.388 47.1398C207.097 47.1398 203.6 50.4075 203.6 56.0352V78.5461H198.458V56.6101C198.458 50.3167 195.11 47.1398 189.819 47.1398C184.528 47.1398 181.031 50.4075 181.031 56.6101V78.5461H175.889V42.9341H181.031V46.8372C183.542 43.9326 187.039 42.5105 190.985 42.5105C195.858 42.5105 199.624 44.5377 201.776 48.4408C204.497 44.5377 208.413 42.5105 213.375 42.5105C217.171 42.5105 220.31 43.751 222.462 45.8387C224.973 48.2895 226.259 51.6177 226.259 55.7629V78.5461H221.028Z" fill="#1A1A18"/>
<path d="M239.829 62.1168C239.829 69.923 243.476 74.4312 250.202 74.4312C254.267 74.4312 256.629 73.1907 259.439 70.3768L262.936 73.4933C259.349 77.1241 256.061 79 250.082 79C240.786 79 234.718 73.342 234.718 60.7552C234.718 49.2577 240.218 42.5105 249.156 42.5105C258.094 42.5105 263.594 49.167 263.594 59.7265V62.1168H239.829ZM257.346 52.2834C256.001 49.0157 252.833 46.928 249.126 46.928C245.419 46.928 242.251 49.0157 240.905 52.2834C240.128 54.2501 239.979 55.309 239.829 58.2137H258.423C258.273 55.309 258.124 54.2198 257.346 52.2834Z" fill="#1A1A18"/>
<path d="M95.8069 0H90.6654V77.8805H95.8069V0Z" fill="#1A1A18"/>
<path d="M116.044 2.81384H90.6654V28.1084H116.044V2.81384Z" fill="#36B649"/>
</svg>
