<svg width="20" height="20" viewBox="0 0 20 20" fill="none" xmlns="http://www.w3.org/2000/svg">
<g clip-path="url(#clip0_2003_365)">
<path fill-rule="evenodd" clip-rule="evenodd" d="M18 16.6752C18 17.2 17.507 17.6191 16.955 17.6191H13.955C13.404 17.6191 13 17.2 13 16.6752V13.8181C13 13.2933 13.404 12.8571 13.955 12.8571H16.955C17.507 12.8571 18 13.2933 18 13.8181V16.6752ZM16.955 10.9524H13.955C12.298 10.9524 11 12.24 11 13.8181V16.6752C11 18.2533 12.298 19.5238 13.955 19.5238H16.955C18.612 19.5238 20 18.2533 20 16.6752V13.8181C20 12.24 18.612 10.9524 16.955 10.9524ZM7 16.6752C7 17.2 6.507 17.6191 5.955 17.6191H2.955C2.404 17.6191 2 17.2 2 16.6752V13.8181C2 13.2933 2.404 12.8571 2.955 12.8571H5.955C6.507 12.8571 7 13.2933 7 13.8181V16.6752ZM5.955 10.9524H2.955C1.298 10.9524 0 12.24 0 13.8181V16.6752C0 18.2533 1.298 19.5238 2.955 19.5238H5.955C7.612 19.5238 9 18.2533 9 16.6752V13.8181C9 12.24 7.612 10.9524 5.955 10.9524ZM18 6.19905C18 6.72381 17.507 7.14286 16.955 7.14286H13.955C13.404 7.14286 13 6.72381 13 6.19905V3.34191C13 2.81715 13.404 2.38096 13.955 2.38096H16.955C17.507 2.38096 18 2.81715 18 3.34191V6.19905ZM16.955 0.476196H13.955C12.298 0.476196 11 1.76381 11 3.34191V6.19905C11 7.77715 12.298 9.04762 13.955 9.04762H16.955C18.612 9.04762 20 7.77715 20 6.19905V3.34191C20 1.76381 18.612 0.476196 16.955 0.476196ZM7 6.19905C7 6.72381 6.507 7.14286 5.955 7.14286H2.955C2.404 7.14286 2 6.72381 2 6.19905V3.34191C2 2.81715 2.404 2.38096 2.955 2.38096H5.955C6.507 2.38096 7 2.81715 7 3.34191V6.19905ZM5.955 0.476196H2.955C1.298 0.476196 0 1.76381 0 3.34191V6.19905C0 7.77715 1.298 9.04762 2.955 9.04762H5.955C7.612 9.04762 9 7.77715 9 6.19905V3.34191C9 1.76381 7.612 0.476196 5.955 0.476196Z" fill="white"/>
</g>
<defs>
<clipPath id="clip0_2003_365">
<rect width="20" height="20" fill="white"/>
</clipPath>
</defs>
</svg>
